<svg width="18" height="18" viewBox="0 0 18 18" fill="none" xmlns="http://www.w3.org/2000/svg">
<g clip-path="url(#clip0_776_456)">
<path d="M17.961 0.0315C17.6513 0.0105 17.3482 0 17.0505 0C10.6005 0 6.92775 4.91775 5.592 8.87475L9.13725 12.42C13.2083 10.962 18 7.425 18 1.044C18 0.714 17.9872 0.3765 17.961 0.0315ZM9.50325 10.665L7.341 8.50275C8.25675 6.3585 10.8593 1.794 16.4902 1.51275C16.302 5.844 13.4595 8.96175 9.50325 10.665ZM13.6065 11.8185C13.1962 12.0983 12.789 12.351 12.3855 12.5767C12.2452 13.245 11.889 13.9583 11.3722 14.5658C11.3708 14.1337 11.2508 13.6988 11.04 13.2623C10.6687 13.431 10.3155 13.5758 9.9795 13.7032C10.4745 14.985 9.9705 15.9315 9.29325 16.8187C10.2653 16.7452 11.2852 16.2698 12.0892 15.465C12.9555 14.5988 13.5645 13.3478 13.6065 11.8185ZM4.7415 6.96675C4.30725 6.75675 3.873 6.63825 3.4425 6.636C4.04475 6.12525 4.7505 5.77125 5.412 5.62725C5.6475 5.21325 5.91225 4.8045 6.19125 4.4025C4.662 4.44375 3.41025 5.05275 2.54325 5.91975C1.74 6.723 1.26375 7.7445 1.19025 8.71575C2.07825 8.03775 3.02475 7.53375 4.3065 8.03025C4.43625 7.677 4.581 7.32225 4.7415 6.96675ZM10.545 7.464C10.2517 7.17075 10.2517 6.69675 10.545 6.4035C10.8383 6.11025 11.3123 6.11025 11.6055 6.4035C11.8988 6.6975 11.8988 7.1715 11.6055 7.46475C11.3123 7.758 10.8375 7.75725 10.545 7.464ZM14.2568 3.75075C13.6718 3.16575 12.7215 3.16575 12.1357 3.75075C11.55 4.3365 11.55 5.2875 12.1357 5.8725C12.7215 6.45825 13.6718 6.45825 14.2575 5.8725C14.8425 5.2875 14.8425 4.33725 14.2568 3.75075ZM12.8258 5.184C12.621 4.97925 12.621 4.6455 12.8258 4.4415C13.029 4.23675 13.3635 4.23675 13.5682 4.4415C13.7723 4.6455 13.7715 4.97925 13.5682 5.184C13.3628 5.388 13.0297 5.388 12.8258 5.184ZM1.47675 14.6835L0.79725 14.004L4.70325 10.113L5.38275 10.7925L1.47675 14.6835ZM5.211 16.0763L4.5315 15.3967L7.2585 12.6488L7.938 13.3282L5.211 16.0763ZM0.6795 18L0 17.3205L4.836 12.492L5.5155 13.1715L0.6795 18Z" fill="#081140"/>
</g>
<defs>
<clipPath id="clip0_776_456">
<rect width="18" height="18" fill="white"/>
</clipPath>
</defs>
</svg>
