<svg width="140" height="37" viewBox="0 0 140 37" fill="none" xmlns="http://www.w3.org/2000/svg">
<path d="M20.1431 10.1189V17.4279C19.7347 13.5746 16.561 10.5119 12.5687 10.1189H20.1431Z" fill="#3A3A3A"/>
<path d="M20.1431 17.4279C19.7347 13.5746 16.561 10.5119 12.5687 10.1189H20.1431H20.1433V17.4307" fill="#3A3A3A"/>
<path d="M3.25256 26.4238V26.424H10.8267" fill="#3A3A3A"/>
<path d="M20.1431 19.115V26.4238H12.5717C16.5626 26.0297 19.7347 22.9677 20.1431 19.115Z" fill="#3A3A3A"/>
<path d="M20.1434 19.1121C20.1431 19.1132 20.1431 19.1147 20.1431 19.116L20.1434 19.1121Z" fill="#3A3A3A"/>
<path d="M12.5723 26.4238C12.5709 26.4238 12.5699 26.4238 12.5687 26.4241L12.5723 26.4238Z" fill="#3A3A3A"/>
<path d="M10.8267 10.1189C6.8337 10.5119 3.6597 13.5759 3.25256 17.4307V10.1189H10.8267Z" fill="#3A3A3A"/>
<path d="M10.8239 26.4238H3.25256V19.1121C3.6597 22.966 6.83218 26.0297 10.8239 26.4238Z" fill="#3A3A3A"/>
<path d="M10.8274 26.4241C10.8263 26.4238 10.825 26.4238 10.8239 26.4238L10.8274 26.4241Z" fill="#3A3A3A"/>
<path d="M19.8624 20.3639C19.8623 20.3652 19.8616 20.3672 19.8611 20.3691C19.1631 20.549 18.4298 20.6451 17.6729 20.6451C13.0089 20.6451 9.22754 16.9954 9.22754 12.4932C9.22754 11.7681 9.32561 11.0647 9.50977 10.3954C9.51162 10.3947 9.51359 10.3943 9.51511 10.3939L19.8624 20.3639Z" fill="#3A3A3A"/>
<path d="M41.6089 16.5757C41.0035 16.0171 40.1916 15.7376 39.1702 15.7376C38.3881 15.7376 37.6542 15.9318 36.9741 16.3166C36.2942 16.7037 35.7313 17.2325 35.289 17.9077C35.118 17.2325 34.7435 16.7036 34.1658 16.3166C33.5867 15.9318 32.8712 15.7376 32.02 15.7376C31.1185 15.7376 30.3145 15.9441 29.6078 16.3532C28.9005 16.7646 28.3433 17.3397 27.9356 18.0794L27.7588 16.1881L25.6108 18.2613V26.3622H27.9851V21.5313C27.9851 20.8729 28.1218 20.2529 28.394 19.6698C28.6675 19.0865 29.0452 18.6184 29.5312 18.2649C30.0171 17.9119 30.5557 17.7347 31.1519 17.7347C32.258 17.8003 32.8381 18.4324 32.8887 19.632V26.3622H35.2891V21.5058C35.3064 20.8484 35.4511 20.233 35.7235 19.6575C35.9944 19.0832 36.3747 18.6184 36.8594 18.2649C37.3441 17.9119 37.8942 17.7347 38.5066 17.7347C39.5794 17.8003 40.1409 18.4324 40.1916 19.632V26.3622H42.5668V18.7938C42.5325 17.8743 42.2131 17.1348 41.6089 16.5757Z" fill="#3A3A3A"/>
<path d="M54.191 18.4001C53.7051 17.5783 53.0241 16.9298 52.1477 16.4529C51.2701 15.9763 50.2709 15.7377 49.1475 15.7377C48.0241 15.7377 47.0145 15.9763 46.1208 16.4529C45.2273 16.9298 44.5289 17.5831 44.0269 18.4121C43.5249 19.2427 43.2746 20.1586 43.2746 21.1611C43.2746 22.2453 43.525 23.1993 44.0269 24.0205C44.529 24.8423 45.2227 25.4789 46.1082 25.9312C46.9939 26.3824 47.9897 26.6087 49.0959 26.6087C50.2364 26.6087 51.2495 26.3703 52.135 25.8934C53.0195 25.4178 53.7052 24.7634 54.1911 23.9342C54.6759 23.1046 54.9183 22.1801 54.9183 21.1611C54.9182 20.1422 54.6759 19.2217 54.191 18.4001ZM51.5217 23.7C50.8751 24.3744 50.0572 24.7103 49.0706 24.7103C48.441 24.7103 47.8655 24.5548 47.3464 24.2424C46.827 23.9297 46.4182 23.5028 46.1208 22.9606C45.8234 22.4183 45.6739 21.8264 45.6739 21.1855C45.6739 20.5442 45.8233 19.9535 46.1208 19.4101C46.4183 18.868 46.8238 18.4368 47.3337 18.1164C47.845 17.7959 48.4238 17.636 49.0706 17.636C50.0572 17.636 50.8751 17.9764 51.5217 18.6585C52.1684 19.3413 52.4923 20.1831 52.4923 21.1855C52.4923 22.1876 52.1683 23.0258 51.5217 23.7Z" fill="#3A3A3A"/>
<path d="M66.9585 19.289C66.8495 18.9811 66.7105 18.6851 66.5418 18.4001C66.0571 17.5783 65.376 16.9298 64.4994 16.4529C63.6217 15.9763 62.6225 15.7377 61.4981 15.7377C60.3748 15.7377 59.3662 15.9763 58.4725 16.4529C57.5791 16.9298 56.8806 17.5831 56.3786 18.4121C55.8767 19.2427 55.6252 20.1586 55.6252 21.1611C55.6252 22.2453 55.8768 23.1993 56.3786 24.0205C56.8807 24.8423 57.5744 25.4789 58.46 25.9312C59.3445 26.3824 60.3403 26.6087 61.4476 26.6087C62.5881 26.6087 63.6013 26.3703 64.4869 25.8934C65.3712 25.4178 66.0571 24.7634 66.5418 23.9342C67.0275 23.1046 67.27 22.1801 67.27 21.1611C67.2699 20.4945 67.1666 19.8703 66.9585 19.289ZM63.8733 23.7C63.2267 24.3744 62.4088 24.7103 61.4223 24.7103C60.7916 24.7103 60.2172 24.5548 59.698 24.2424C59.1789 23.9297 58.77 23.5028 58.4724 22.9606C58.1749 22.4184 58.0256 21.8264 58.0256 21.1855C58.0256 20.5442 58.1749 19.9535 58.4724 19.4101C58.7701 18.868 59.1744 18.4368 59.6853 18.1164C60.1967 17.7959 60.7742 17.636 61.4223 17.636C62.4088 17.636 63.2267 17.9764 63.8733 18.6585C64.5201 19.3413 64.8438 20.1831 64.8438 21.1855C64.8439 22.1876 64.5201 23.0258 63.8733 23.7Z" fill="#3A3A3A"/>
<path d="M77.0183 16.6139C76.3704 16.0459 75.5538 15.7623 74.5672 15.7623C73.5967 15.7623 72.7364 15.9717 71.9885 16.3909C71.2382 16.81 70.6768 17.3899 70.3022 18.1284L70.1531 16.2058L68.0039 18.2803V26.3621H70.3792V21.5789C70.3792 20.4622 70.686 19.5432 71.2992 18.8192C71.9114 18.096 72.6856 17.7346 73.6218 17.7346C74.2684 17.7514 74.7531 17.9245 75.0782 18.2523C75.4012 18.5808 75.5793 19.0333 75.6133 19.6076V26.3621H78.0153V18.8192C77.9958 17.9156 77.6649 17.1793 77.0183 16.6139Z" fill="#3A3A3A"/>
<path d="M78.9422 12.2262V26.3621H81.3163V9.93442L78.9422 12.2262Z" fill="#3A3A3A"/>
<path d="M91.6333 16.1568L91.4539 17.7834C91.0464 17.1759 90.5101 16.6823 89.8462 16.3043C89.182 15.926 88.3987 15.7376 87.4973 15.7376C86.4921 15.7376 85.5766 15.9638 84.7519 16.4154C83.9262 16.8675 83.27 17.5086 82.7857 18.3377C82.3007 19.1683 82.0587 20.1422 82.0587 21.2597C82.0587 22.3773 82.2915 23.3385 82.7601 24.1436C83.2277 24.9487 83.8667 25.5606 84.6751 25.9796C85.4837 26.399 86.3901 26.6086 87.3951 26.6086C88.2966 26.6086 89.1056 26.4066 89.8211 26.0044C90.5354 25.6019 91.0797 25.1627 91.4542 24.6859V26.3622H93.8297V16.1568H91.6333ZM91.454 22.0976C91.2841 22.9027 90.8892 23.5391 90.2676 24.0083C89.6451 24.4762 88.9007 24.7103 88.0327 24.7103C87.3858 24.7103 86.7896 24.5504 86.2451 24.23C85.7005 23.9097 85.2665 23.4784 84.9427 22.936C84.6199 22.3928 84.458 21.794 84.458 21.1365C84.458 20.4623 84.6156 19.8579 84.9302 19.3246C85.2448 18.7902 85.6708 18.3757 86.2074 18.0794C86.7438 17.7834 87.3261 17.6359 87.9568 17.6359C88.7906 17.6359 89.5305 17.8623 90.1781 18.3137C90.8246 18.766 91.251 19.3534 91.454 20.0766V22.0976Z" fill="#3A3A3A"/>
<path d="M103.77 16.6139C103.124 16.0459 102.306 15.7623 101.318 15.7623C100.348 15.7623 99.4878 15.9717 98.7386 16.3909C97.9912 16.81 97.428 17.3899 97.0536 18.1284L96.9046 16.1793L94.7563 18.2524V26.3622H97.1308V21.579C97.1308 20.4623 97.4374 19.5433 98.051 18.8193C98.663 18.0961 99.4386 17.7347 100.373 17.7347C101.021 17.7516 101.507 17.9246 101.83 18.2524C102.153 18.5809 102.332 19.0334 102.366 19.6077V26.3622H104.767V18.8193C104.75 17.9156 104.418 17.1793 103.77 16.6139Z" fill="#3A3A3A"/>
<path d="M115.049 12.2298V17.5377C114.623 16.9788 114.041 16.5385 113.3 16.218C112.687 15.9529 112.054 15.7978 111.4 15.7523C111.264 15.7422 111.127 15.7377 110.989 15.7377C109.933 15.7377 108.988 15.9518 108.154 16.3786C107.32 16.8068 106.664 17.4268 106.189 18.2393C105.711 19.0533 105.473 20.0112 105.473 21.1112C105.473 22.1964 105.698 23.1537 106.15 23.9826C106.601 24.8136 107.226 25.4586 108.027 25.9175C108.827 26.378 109.721 26.6086 110.709 26.6086C111.593 26.6086 112.406 26.4445 113.147 26.1152C113.887 25.7871 114.513 25.3359 115.024 24.7601V26.3622H117.423V9.93759L115.049 12.2298ZM115.024 21.9994C114.836 22.8041 114.423 23.4452 113.785 23.9217C113.147 24.3987 112.369 24.6369 111.449 24.6369C110.802 24.6369 110.206 24.4808 109.661 24.1682C109.117 23.8566 108.683 23.4286 108.359 22.8863C108.035 22.3442 107.874 21.7441 107.874 21.0866C107.874 20.4139 108.035 19.8097 108.359 19.2749C108.683 18.7416 109.117 18.3226 109.661 18.0177C110.206 17.7137 110.802 17.5617 111.449 17.5617C112.3 17.5617 113.058 17.7958 113.722 18.265C114.386 18.7326 114.82 19.3372 115.024 20.0766V21.9994H115.024Z" fill="#3A3A3A"/>
<path d="M131.974 16.1813L132.15 18.573C132.421 18.0129 132.811 17.522 133.313 17.0941C133.815 16.6668 134.346 16.3386 134.908 16.107C135.469 15.8785 135.964 15.7544 136.389 15.7376L136.286 18.0298C135.52 17.9965 134.828 18.145 134.205 18.4745C133.585 18.8026 133.099 19.2581 132.751 19.8427C132.402 20.4246 132.227 21.0456 132.227 21.7033V26.3621H129.853V18.2293L131.974 16.1813Z" fill="#3A3A3A"/>
<path d="M127.126 22.3229C126.599 23.6337 125.279 24.5627 123.735 24.5627C122.453 24.5627 121.325 23.9217 120.679 22.955L127.355 20.6943L128.89 20.1751C128.676 19.2937 128.346 18.5354 127.898 17.901C127.896 17.8988 127.895 17.8977 127.895 17.8969C126.883 16.7158 125.354 15.9651 123.644 15.9651C120.6 15.9651 118.131 18.3479 118.131 21.2861C118.131 24.1867 120.535 26.5463 123.526 26.6072C123.565 26.6084 123.604 26.6084 123.644 26.6084C124.618 26.6084 125.534 26.3633 126.329 25.9342C126.334 25.932 126.34 25.9297 126.344 25.9254C126.635 25.7689 126.908 25.5862 127.163 25.3842C128.296 24.4761 129.047 23.139 129.145 21.631L127.126 22.3229ZM120.096 21.0501C120.096 19.2493 121.5 17.7647 123.31 17.5629C123.324 17.5617 123.338 17.5617 123.351 17.5617C124.049 17.5617 124.63 17.7347 125.098 18.0794C125.567 18.4247 125.93 18.8768 126.185 19.4357L120.14 21.59C120.111 21.4137 120.096 21.2342 120.096 21.0501Z" fill="#3A3A3A"/>
</svg>
